<svg viewBox="13 8 79 79" fill="none" xmlns="http://www.w3.org/2000/svg" class="quizzleIcon quizzleIcon-largeMargin"><path d="M52.452 66.888v6.704c.575.718 2.538 2.92 5.794 3.591 2.825.575 5.076-.383 6.225-.862 2.778-1.15 4.406-2.969 5.076-3.879V44.095C69.547 34.66 61.886 27 52.452 27c-9.433 0-17.095 7.661-17.095 17.095V72.49a12.55 12.55 0 005.076 3.879c1.15.479 3.4 1.389 6.225.862 3.256-.623 5.22-2.825 5.794-3.591v-6.752z" stroke="#6504B5" stroke-width="3" stroke-miterlimit="10"></path><path d="M52.452 67.606a2.682 2.682 0 100-5.363 2.682 2.682 0 000 5.363zM59.204 52.906a2.682 2.682 0 100-5.363 2.682 2.682 0 000 5.363z" fill="#6504B5"></path><path d="M41.39 30.64c-1.244-.48-3.782-.958-6.176 0-2.107.861-3.304 2.441-3.975 3.351-5.746 7.997-10.678 16.616-14.557 25.666a18.742 18.742 0 00-1.532 5.699c-.144 1.388-.287 2.586.096 4.022.91 3.783 4.118 5.794 4.74 6.177 3.448 2.155 6.944 1.724 7.997 1.532 3.208-.526 6.56-3.974 7.374-4.692M63.61 30.64c1.244-.48 3.782-.958 6.177 0 2.106.861 3.303 2.441 3.974 3.351 5.746 7.997 10.678 16.616 14.557 25.666a18.74 18.74 0 011.532 5.699c.144 1.388.287 2.586-.096 4.022-.91 3.783-4.118 5.794-4.74 6.177-3.448 2.155-6.944 1.724-7.997 1.532-3.208-.526-6.56-3.974-7.374-4.692" stroke="#6504B5" stroke-width="3" stroke-miterlimit="10"></path></svg>