<svg viewBox="0 0 81 78" fill="none" xmlns="http://www.w3.org/2000/svg" class="quizzleIcon quizzleIcon-largeMargin"><path d="M79.753 19.342L41.108.273a1.369 1.369 0 00-1.2 0L1.247 19.342c-.318.15-.561.424-.676.758-.114.334-.09.701.067 1.018.344.66 1.145.925 1.809.597L40.5 2.945l38.053 18.77c.19.09.398.136.609.133.503.002.966-.28 1.2-.73.157-.316.181-.683.067-1.018a1.307 1.307 0 00-.676-.758zM67.507 60.732a4.448 4.448 0 00-3.287-.166l-14.235 3.319a5.015 5.015 0 00-.92-3.435 5.039 5.039 0 00-3.288-2.008l-12.543-2.739h-.164a10.045 10.045 0 00-8.317 1.361c-2.022 1.378-11.967 7.883-12.082 7.95a1.322 1.322 0 00-.378 1.842 1.355 1.355 0 001.857.382c.411-.266 10.093-6.639 12.115-7.983a7.386 7.386 0 016.41-.913h.116l12.46 2.722c.655.08 1.249.428 1.643.962.378.514.532 1.161.428 1.793a2.436 2.436 0 01-2.745 2.008l-8.22-1.66a1.337 1.337 0 00-1.032.158c-.31.19-.53.498-.611.855-.073.347-.004.71.19 1.007.195.296.5.501.845.57l8.22 1.659c.273.022.548.022.821 0a5.153 5.153 0 003.65-1.544l16.437-3.85h.148a1.777 1.777 0 011.332 0c.424.184.752.54.904.98.208.436.216.942.023 1.385a1.65 1.65 0 01-1.026.921l-17.638 6.34c-.868.364-1.837.4-2.728.1l-14.794-3.12a1.353 1.353 0 00-.92.132l-10.209 5.394c-.31.162-.542.443-.644.78-.102.338-.066.702.102 1.012.36.651 1.17.894 1.824.548l9.863-5.178 14.3 3.02a6.419 6.419 0 004.275-.232l17.522-6.307a4.327 4.327 0 002.878-3.93 4.335 4.335 0 00-2.582-4.135z" fill="#6504B5"></path><path fill-rule="evenodd" clip-rule="evenodd" d="M23.52 31.672c-.198 2.735 1.83 5.116 4.537 5.328 2.68-.246 4.67-2.617 4.47-5.328.199-2.733-1.83-5.115-4.536-5.327-2.68.247-4.67 2.617-4.471 5.328zm6.789 0a2.818 2.818 0 01-2.252 3.087c-1.461-.246-2.478-1.6-2.318-3.087a2.818 2.818 0 012.268-3.086 2.818 2.818 0 012.252 3.087h.05zM57.53 31.672c.198 2.735-1.83 5.116-4.537 5.328-2.7-.22-4.72-2.6-4.52-5.328-.2-2.727 1.82-5.106 4.52-5.327 2.707.212 4.735 2.594 4.536 5.328zm-2.269 0c.172-1.476-.82-2.833-2.268-3.103-1.442.277-2.425 1.633-2.252 3.104-.163 1.47.827 2.817 2.268 3.086a2.818 2.818 0 002.252-3.087zM45.596 17.699c-2.707.212-4.735 2.593-4.537 5.327-.198 2.734 1.83 5.115 4.537 5.327 2.707-.212 4.735-2.593 4.537-5.327.198-2.734-1.83-5.115-4.537-5.327zm0 8.43a2.818 2.818 0 01-2.252-3.086 2.818 2.818 0 012.252-3.087 2.818 2.818 0 012.252 3.087 2.818 2.818 0 01-2.252 3.087zM30.867 23.026c-.198-2.734 1.83-5.115 4.537-5.327 2.714.203 4.752 2.587 4.554 5.327.198 2.74-1.84 5.124-4.554 5.327-2.707-.212-4.735-2.593-4.537-5.327zm2.285.017a2.818 2.818 0 002.252 3.087 2.818 2.818 0 002.252-3.087 2.818 2.818 0 00-2.252-3.087 2.818 2.818 0 00-2.252 3.087zM34.615 32.569l-4.34 7.401a8.574 8.574 0 00-.739 1.66 6.16 6.16 0 00-.427 2.307c.076 3.327 2.705 6.018 6 6.14h.312a6.325 6.325 0 002.416-.464l.723-.233a6.147 6.147 0 011.94-.415c.664.032 1.32.172 1.94.415l.805.2a10.64 10.64 0 002.548.448h.082c3.303-.131 5.933-2.838 6-6.174a7.315 7.315 0 00-.411-2.224 9.293 9.293 0 00-.756-1.66l-4.34-7.418a7.035 7.035 0 00-5.884-4.016 7.036 7.036 0 00-5.869 4.033zm9.863 1.128l4.34 7.419c.23.39.422.8.575 1.228.168.486.262.995.28 1.51-.05 2.107-1.697 3.82-3.781 3.933a8.41 8.41 0 01-1.957-.348l-.706-.216a8.152 8.152 0 00-2.729-.614 8.15 8.15 0 00-2.647.53l-.706.217h-.132c-.52.219-1.08.326-1.644.315h-.148c-2.104-.078-3.787-1.792-3.846-3.917a4 4 0 01.362-1.41c.15-.428.342-.84.575-1.228l4.34-7.419a4.935 4.935 0 013.912-2.887 4.936 4.936 0 013.846 2.87l.066.017z" fill="#6504B5"></path></svg>